<svg xmlns="http://www.w3.org/2000/svg" viewBox="0 0 100 100" fill="none">
  <defs>
    <clipPath id="c">
      <circle cx="50" cy="50" r="43"/>
    </clipPath>
  </defs>
  <circle cx="50" cy="50" r="46" fill="white" stroke="#26a69a" stroke-width="5"/>
  <g clip-path="url(#c)">
    <circle cx="50" cy="58" r="13" fill="#f5a31c"/>
    <polygon points="3,90 38,33 68,90" fill="#1a8585"/>
    <polygon points="26,90 63,24 95,90" fill="#26a69a"/>
    <rect x="0" y="78" width="100" height="20" fill="#26a69a"/>
    <path d="M 13,46 C 6,16 64,5 76,26" stroke="#1a8585" stroke-width="2.5" stroke-linecap="round"/>
    <g transform="translate(76,23) rotate(45)" fill="#1a8585">
      <path d="M 0,-4.5 L 1,-2.8 L 1,0.5 L 5.5,2.5 L 5,3.5 L 1,1.5 L 1,3.5 L 2.5,5 L 1.5,5.5 L 0,4.5 L -1.5,5.5 L -2.5,5 L -1,3.5 L -1,1.5 L -5,3.5 L -5.5,2.5 L -1,0.5 L -1,-2.8 Z"/>
    </g>
  </g>
</svg>
