<svg xmlns="http://www.w3.org/2000/svg" viewBox="0 0 36 40" fill="none">
  <defs>
    <linearGradient id="a" x1="18" y1="38" x2="18" y2="3" gradientUnits="userSpaceOnUse">
      <stop offset="0%" stop-color="#FBBF24"/>
      <stop offset="45%" stop-color="#F97316"/>
      <stop offset="100%" stop-color="#DC2626"/>
    </linearGradient>
    <linearGradient id="b" x1="18" y1="36" x2="18" y2="14" gradientUnits="userSpaceOnUse">
      <stop offset="0%" stop-color="#FEF9C3"/>
      <stop offset="100%" stop-color="#FDE68A" stop-opacity="0"/>
    </linearGradient>
  </defs>
  <path d="M18 3C22 9 26 13 25 19C24 15 27 15 27 19C27 26 23 30 20 34C19 36 18.5 37 18 38C17.5 37 17 36 16 34C13 30 9 26 9 19C9 15 12 15 11 19C10 13 14 9 18 3Z" fill="url(#a)"/>
  <path d="M18 16C20 19 21 22 21 26C21 31 19.5 34.5 18 38C16.5 34.5 15 31 15 26C15 22 16 19 18 16Z" fill="url(#b)"/>
</svg>
