<svg xmlns="http://www.w3.org/2000/svg" viewBox="0 0 36 46" fill="none">
  <defs>
    <linearGradient id="a" x1="18" y1="2" x2="18" y2="44" gradientUnits="userSpaceOnUse">
      <stop offset="0%" stop-color="#38bdf8"/>
      <stop offset="55%" stop-color="#1d4ed8"/>
      <stop offset="100%" stop-color="#1e3a8a"/>
    </linearGradient>
    <radialGradient id="b" cx="35%" cy="28%" r="50%">
      <stop offset="0%" stop-color="white" stop-opacity="0.35"/>
      <stop offset="100%" stop-color="white" stop-opacity="0"/>
    </radialGradient>
  </defs>
  <path d="M18 2C9.163 2 2 9.163 2 18C2 29 18 44 18 44C18 44 34 29 34 18C34 9.163 26.837 2 18 2Z" fill="url(#a)"/>
  <path d="M18 2C9.163 2 2 9.163 2 18C2 29 18 44 18 44C18 44 34 29 34 18C34 9.163 26.837 2 18 2Z" fill="url(#b)"/>
  <circle cx="18" cy="17" r="8" fill="white" fill-opacity="0.15"/>
  <circle cx="18" cy="17" r="4" fill="white" fill-opacity="0.85"/>
</svg>
